<?xml version="1.0" standalone="no"?><!DOCTYPE svg PUBLIC "-//W3C//DTD SVG 1.1//EN" "http://www.w3.org/Graphics/SVG/1.1/DTD/svg11.dtd"><svg t="1738824849936" class="icon" viewBox="0 0 1024 1024" version="1.1" xmlns="http://www.w3.org/2000/svg" p-id="8178" xmlns:xlink="http://www.w3.org/1999/xlink" width="200" height="200"><path d="M402.336 744.992c-6.176-16-21.408-26.56-38.4-26.592H279.936a182.688 182.688 0 0 0-130.304 54.624A186.88 186.88 0 0 0 96 904.992V982.4c0 22.976 18.432 41.6 41.152 41.6h311.84c13.632 0 26.368-6.752 34.048-18.144 7.68-11.36 9.28-25.824 4.32-38.656l-85.024-222.208z m373.952-26.784h-83.84c-17.12 0-32.448 10.656-38.592 26.784L568.832 966.4c-4.896 12.864-3.2 27.296 4.48 38.656 7.744 11.36 20.48 18.144 34.08 18.144h311.456a41.6 41.6 0 0 0 41.152-41.6v-76.608a187.104 187.104 0 0 0-53.504-131.968 182.88 182.88 0 0 0-130.24-54.816zM181.632 448.608H240.96c16.384 0 29.664-13.44 29.664-30.016a29.824 29.824 0 0 0-29.664-29.984H181.632a29.824 29.824 0 0 0-29.664 29.984c0 16.576 13.28 30.016 29.664 30.016zM526.112 120c16.384 0 29.664-13.44 29.664-30.016V29.984A29.824 29.824 0 0 0 526.112 0a29.824 29.824 0 0 0-29.664 29.984v60c0 16.576 13.28 30.016 29.664 30.016zM269.024 202.4a29.632 29.632 0 0 0 42.144 0 30.432 30.432 0 0 0 0-42.4L269.024 117.6a29.312 29.312 0 0 0-41.92 0 30.432 30.432 0 0 0 0 42.4l41.92 42.4z m523.84 217.6c0 7.968 3.168 15.584 8.704 21.216 5.568 5.632 13.12 8.768 20.992 8.768h59.328a29.6 29.6 0 0 0 25.696-14.976 30.304 30.304 0 0 0 0-30.016 29.6 29.6 0 0 0-25.696-15.008h-59.328a29.824 29.824 0 0 0-29.664 30.016z m-19.52-207.392a30.08 30.08 0 0 0 21.12-8.8l41.92-42.4a30.432 30.432 0 0 0 0-42.4 29.312 29.312 0 0 0-41.92 0l-42.112 42.4a30.432 30.432 0 0 0 0 42.4 30.08 30.08 0 0 0 20.96 8.8z m-242.272 502.4a29.504 29.504 0 0 0-20.992 8.768 30.176 30.176 0 0 0-8.672 21.216v160c0 16.576 13.28 30.016 29.664 30.016s29.664-13.44 29.664-30.016v-160a29.824 29.824 0 0 0-29.664-29.984z m-163.36-159.616c17.6 18.24 27.392 42.752 27.296 68.192 0 15.936 6.24 31.2 17.376 42.432 11.136 11.264 26.24 17.6 41.952 17.6h152.256c32.768 0 59.328-26.88 59.328-60.032a96.384 96.384 0 0 1 26.528-67.392 231.968 231.968 0 0 0 41.6-261.376c-42.112-87.296-133.856-138.432-229.28-127.808-101.984 16.576-182.208 96.992-199.552 200a231.04 231.04 0 0 0 62.496 188.384z m73.6-201.6a29.248 29.248 0 0 1 41.504 4.608c18.4 23.2 36.16 35.008 50.016 34.208 17.408-1.408 33.024-22.624 37.184-30.016a29.472 29.472 0 0 1 39.552-11.392 29.76 29.76 0 0 1 11.68 40 127.84 127.84 0 0 1-61.12 55.2v100a29.824 29.824 0 0 1-29.664 29.984 29.824 29.824 0 0 1-29.664-29.984v-99.2a150.752 150.752 0 0 1-64.864-51.2 30.24 30.24 0 0 1 5.344-42.208z" fill="#32C8DA" p-id="8179"></path></svg>