<?xml version="1.0" standalone="no"?><!DOCTYPE svg PUBLIC "-//W3C//DTD SVG 1.1//EN" "http://www.w3.org/Graphics/SVG/1.1/DTD/svg11.dtd"><svg t="1738824680570" class="icon" viewBox="0 0 1024 1024" version="1.1" xmlns="http://www.w3.org/2000/svg" p-id="3333" xmlns:xlink="http://www.w3.org/1999/xlink" width="200" height="200"><path d="M853.384533 341.333333c-1.962667-148.462933-122.760533-273.066667-271.684266-273.066666-94.8736 0-183.9616 51.285333-233.147734 125.201066A136.533333 136.533333 0 0 0 136.533333 307.2c0 2.6112 0.238933 5.154133 0.392534 7.748267-0.170667 3.106133-0.392533 6.2464-0.392534 9.3184-68.061867 32.631467-119.466667 110.199467-119.466666 190.378666C17.066667 625.834667 108.032 716.8 219.221333 716.8h418.2528c2.3552 0 4.642133-0.273067 6.9632-0.3584 2.338133 0.085333 4.625067 0.3584 6.980267 0.3584h167.304533C922.231467 716.8 1006.933333 632.098133 1006.933333 528.5888c0-91.665067-66.4576-170.8544-153.5488-187.255467zM853.384533 341.333333s-43.264-6.4-85.384533 0M136.533333 307.2a136.533333 136.533333 0 0 1 273.066667 0" fill="#7FABDA" p-id="3334"></path><path d="M529.066667 699.733333m-273.066667 0a273.066667 273.066667 0 1 0 546.133333 0 273.066667 273.066667 0 1 0-546.133333 0Z" fill="#556080" p-id="3335"></path><path d="M699.733333 699.733333a17.066667 17.066667 0 0 0-17.066666 17.066667c0 84.701867-68.9152 153.6-153.6 153.6s-153.6-68.898133-153.6-153.6 68.9152-153.6 153.6-153.6c51.2 0 96.887467 25.7024 124.7744 68.266667H546.133333a17.066667 17.066667 0 1 0 0 34.133333h136.533334l0.085333-0.017067c1.194667 0 2.389333-0.4608 3.584-0.7168 1.024-0.238933 2.133333-0.256 3.089067-0.6656l0.085333-0.017066c0.580267-0.256 0.955733-0.733867 1.4848-1.041067 1.3824-0.785067 2.7648-1.5872 3.874133-2.7136 0.750933-0.785067 1.194667-1.757867 1.774934-2.645333 0.6144-0.938667 1.365333-1.774933 1.792-2.833067 0.580267-1.4336 0.733867-2.986667 0.9216-4.522667 0.068267-0.6656 0.375467-1.2288 0.375466-1.8944v-136.533333a17.066667 17.066667 0 1 0-34.133333 0v78.506667a180.992 180.992 0 0 0-136.533333-61.44c-103.509333 0-187.733333 84.224-187.733334 187.733333s84.224 187.733333 187.733334 187.733333 187.733333-84.224 187.733333-187.733333a17.066667 17.066667 0 0 0-17.066667-17.066667z" fill="#FFFFFF" p-id="3336"></path></svg>