<?xml version="1.0" standalone="no"?><!DOCTYPE svg PUBLIC "-//W3C//DTD SVG 1.1//EN" "http://www.w3.org/Graphics/SVG/1.1/DTD/svg11.dtd"><svg t="1738758946923" class="icon" viewBox="0 0 1024 1024" version="1.1" xmlns="http://www.w3.org/2000/svg" p-id="33174" xmlns:xlink="http://www.w3.org/1999/xlink" width="200" height="200"><path d="M313.173333 959.146667h397.44c137.173333 0 248.533333-111.146667 248.533334-248.533334V313.173333c0-137.173333-111.146667-248.533333-248.533334-248.533333H313.173333c-137.173333 0-248.533333 111.146667-248.533333 248.533333v397.44c0.213333 137.386667 111.36 248.533333 248.533333 248.533334z" fill="#ECEFF1" p-id="33175"></path><path d="M233.386667 362.24c-10.453333 0-18.986667 8.533333-18.986667 18.986667s8.533333 18.986667 18.986667 18.986666 18.986667-8.533333 18.986666-18.986666-8.533333-18.986667-18.986666-18.986667z" fill="#FFC107" p-id="33176"></path><path d="M312.746667 457.6l35.84-15.146667c16.853333-30.293333 45.653333-47.786667 82.773333-47.786666 8.533333 0 16.426667 1.066667 23.893333 2.773333l34.133334-14.293333c-16.853333-8.32-36.053333-13.013333-58.026667-13.013334-59.306667-0.213333-101.546667 32.426667-118.613333 87.466667z m-66.56 28.16v-39.04h-25.386667v49.706667l25.386667-10.666667z" fill="#FF5722" p-id="33177"></path><path d="M246.186667 555.093333v-69.333333l-25.386667 10.666667v69.333333l25.386667-10.666667z m85.546666-39.466666c0-29.013333 6.186667-53.76 17.066667-73.173334l-35.84 15.146667c-5.333333 17.28-8.32 36.693333-8.32 58.026667 0 4.906667 0.64 9.386667 1.066667 14.293333l26.453333-11.093333c-0.213333-1.066667-0.426667-2.133333-0.426667-3.2z m339.84-140.373334c-6.826667 2.133333-13.44 4.906667-19.2 8.106667l19.2-8.106667z m-182.186666 7.68l-34.133334 14.293334c25.6 5.973333 45.44 21.546667 58.453334 44.586666l25.386666-10.666666c-11.52-21.546667-28.586667-37.76-49.706666-48.213334z" fill="#F44336" p-id="33178"></path><path d="M246.186667 624.426667v-69.333334l-25.386667 10.666667v69.333333l25.386667-10.666666z m425.386666-249.173334l-19.2 8.106667c-24.32 13.653333-39.253333 36.266667-39.253333 64 0 7.466667 1.066667 14.08 2.986667 20.48l25.6-10.88c-0.853333-3.2-1.493333-6.613333-1.493334-10.453333 0-30.506667 27.733333-52.693333 67.84-52.693334 19.84 0 36.48 5.333333 48.64 14.293334l26.026667-11.093334c-17.28-17.066667-43.093333-27.733333-73.813333-27.733333-13.44 0.64-26.026667 2.56-37.333334 5.973333z m-339.626666 143.573334l-26.453334 11.093333c1.493333 23.893333 6.4 45.013333 14.933334 62.933333l24.96-10.453333c-8.533333-17.706667-13.013333-39.04-13.44-63.573333z m207.146666-87.466667l-25.386666 10.666667c9.386667 16.853333 14.933333 37.973333 16.426666 62.293333l26.453334-11.093333c-2.56-23.466667-8.106667-44.586667-17.493334-61.866667z" fill="#E91E63" p-id="33179"></path><path d="M551.893333 564.266667c3.626667-14.933333 5.973333-30.933333 5.973334-48.64 0-7.893333-0.853333-15.146667-1.493334-22.4l-26.453333 11.093333c0.213333 3.84 0.64 7.253333 0.64 11.306667 0 24.106667-4.48 45.013333-11.946667 62.72l33.28-14.08z m-206.506666 18.133333l-24.96 10.453333c10.24 21.76 24.96 39.04 44.16 50.56l31.36-13.226666c-22.613333-8.106667-39.893333-24.746667-50.56-47.786667z m-99.2 42.026667l-25.386667 10.666666v20.693334h25.386667v-31.36z m395.52-167.253334l-25.6 10.88c6.186667 21.546667 22.826667 36.48 52.906666 46.933334l39.68-16.853334-8.32-2.133333c-36.266667-8.96-53.973333-20.693333-58.666666-38.826667z m136.533333-13.013333h26.88c-1.28-18.133333-9.386667-34.133333-22.186667-46.72l-26.026666 11.093333c11.733333 8.746667 19.413333 21.12 21.333333 35.626667z" fill="#9C27B0" p-id="33180"></path><path d="M551.893333 564.266667l-33.066666 14.08c-15.573333 36.693333-45.866667 58.666667-87.466667 58.666666-13.013333 0-24.96-2.56-35.626667-6.613333l-31.36 13.226667c18.773333 11.306667 40.96 18.133333 66.986667 18.133333 63.146667-0.213333 106.026667-36.906667 120.533333-97.493333z m80 18.773333h-26.88c0.64 9.173333 3.2 17.493333 6.613334 25.386667l24.533333-10.453334c-1.92-4.693333-3.626667-9.6-4.266667-14.933333z m96.213334-80l-19.413334-4.906667-39.68 16.853334c5.76 1.92 12.16 3.84 18.986667 5.546666l32 8.106667c17.706667 4.266667 31.146667 9.813333 41.173333 16.64l29.866667-12.586667c-13.226667-12.8-33.706667-22.4-62.933333-29.653333z" fill="#3F51B5" p-id="33181"></path><path d="M636.373333 597.973333l-24.533333 10.453334C621.013333 629.973333 640 646.4 665.6 654.933333l42.026667-17.706666c-34.346667-0.853333-61.013333-16-71.253334-39.253334z m171.52-3.2c0.853333-4.693333 1.493333-9.6 1.493334-14.933333 0-19.413333-5.76-34.986667-18.56-47.36l-29.866667 12.586667c14.293333 9.6 21.333333 21.973333 21.333333 37.546666 0 9.813333-3.2 18.56-8.746666 26.453334l34.346666-14.293334z" fill="#03A9F4" p-id="33182"></path><path d="M807.893333 594.773333l-34.346666 14.506667c-11.733333 16.853333-34.56 28.16-63.36 28.16-1.066667 0-1.92-0.213333-2.773334-0.213333L665.6 654.933333c12.8 4.266667 26.88 6.613333 42.453333 6.613334 54.826667 0 92.586667-26.24 99.84-66.773334z" fill="#009688" p-id="33183"></path></svg>